<?xml version="1.0" encoding="utf-8"?>
<!-- Svg Vector Icons : http://www.onlinewebfonts.com/icon -->
<!DOCTYPE svg PUBLIC "-//W3C//DTD SVG 1.1//EN" "http://www.w3.org/Graphics/SVG/1.1/DTD/svg11.dtd">
<svg version="1.1" xmlns="http://www.w3.org/2000/svg" xmlns:xlink="http://www.w3.org/1999/xlink" x="0px" y="0px" viewBox="0 0 1000 1000" enable-background="new 0 0 1000 1000" xml:space="preserve">
<metadata> Svg Vector Icons : http://www.onlinewebfonts.com/icon </metadata>
<g><g><path d="M916,735.6c-17.4-5.8-19.6-5.1-27.6-31.9c-8-26.9,12.4-53,19.6-61c7.3-8,9.5-15.3,9.5-32.7c0-17.4-31.2-78.4-90-217.8c-58.8-139.4-99.5-227.3-132.2-299.9c-32.6-72.6-36.3-74-68.2-79.9c-32-5.8-58.1-0.7-91.5,8c-33.4,8.7-95.8,31.9-141.6,49.4C348.2,87.3,285,112,271.9,120c-13.1,8-39.9,24.7-79.9,40.7c-39.9,16-67.5,33.4-91.5,53c-24,19.6-33.4,103.1-34.8,138c-1.5,34.8,17.4,82,17.4,82c14.5,35.6,47.9,93.7,77,142.3c29.1,48.6,45.7,82.8,87.8,164.8c42.1,82.1,112.6,217.1,133.6,239.6c21,22.5,79.9,0.7,136.5-16.7c56.6-17.4,106-42.1,128.5-50.8c22.5-8.7,55.9-18.2,127.8-55.9c71.9-37.7,143.8-74.8,154.7-90C939.9,751.6,933.4,741.4,916,735.6z M116.6,419.8c-6.5-7.3-19.6-42.1-16-83.5c3.6-41.4,9.4-72.6,15.3-74.1c3.1-0.8,14.5,34.1,21.8,51.6c7.3,17.4,11.6,21,5.8,27.6c-5.8,6.5-18.9,37-22.5,53.7C117.3,411.8,123.1,427.1,116.6,419.8z M183.4,513.5c-2.2,18.9,0,42.1-5.1,38.5c-5.1-3.7-22.5-39.2-28.3-47.9c-5.8-8.7-8.7-23.2-5.8-27.6c2.9-4.4,8.7,2.2,11.6,8c2.9,5.8,16.7,18.2,27.6-2.2c10.9-20.3,6.5-36.3-1.5-42.8c-8-6.5-23.9-1.5-30.5,4.3c0,0,0-17.4,7.3-36.3c7.3-18.9,10.2-27.6,14.5-18.9c4.4,8.7,30.5,54.5,31.2,61.7c0.7,7.2,0.7,10.2-3.6,13.8C196.4,467.7,185.6,494.6,183.4,513.5z M364.1,840.9c-5.8,8.7-2.9,22.5-5.1,31.2c-2.2,8.7-5.1-1.4-12.3-17.4c-7.3-16-42.8-71.2-71.2-122c-28.3-50.8-56.6-104.6-66.8-123.4c-10.2-18.9-8-26.9-7.3-35.6c0.7-8.8,6.5-54.5,9.4-69c2.9-14.5,8.3-16.7,10.2-14.5c8,9.4,31.9,53.7,51.6,97.3c19.6,43.6,88.6,204.8,97.3,223.6C378.7,830,370,832.3,364.1,840.9z M738.8,837.3c-82,37.7-136.5,65.4-200.4,89.3c-63.9,24-120.5,50.1-124.9,21c-4.4-29-7.3-73.3-7.3-73.3c0-11.6-0.7-38.5,20.3-50.1c21.1-11.6,130.7-57.4,212-85.7c81.3-28.3,133.6-45.8,163.4-57.4c29.8-11.6,45.7-18.2,47.2-14.5c1.4,3.6-8.7,15.2-22.5,21.1c-13.8,5.8-220.7,90-241.1,99.4c-20.3,9.4,2.9,5.1,10.2,1.4c7.2-3.6,128.5-46.5,174.3-64.6c45.7-18.1,82.8-30.5,84.2-26.8c1.4,3.6-58.1,26.8-99.5,49.4c-41.4,22.5-122.7,64.6-131.4,67.5c-8.7,2.9-16,5.8-13.1,7.3c2.9,1.4,47.9-17.4,77-29.8c29.1-12.3,98.8-46.5,122-55.2c23.2-8.7,39.2-12.4,47.2-10.2c8,2.2,8,12.4-7.2,18.2c-15.2,5.8-84.2,44.3-147.4,68.2c-63.2,24-86.4,33.4-82.8,36.3c3.7,3,57.4-19.6,83.5-29c26.2-9.5,89.3-42.1,123.4-53c34.2-10.9,50.1-13.1,51.5-8.7C879,762.5,820.9,799.5,738.8,837.3z M876.1,620.2c-14.6,7.2-130.7,44.3-233.8,83.5c-103.1,39.2-179.4,66.8-197.5,77c-18.2,10.2-45.7,31.9-62.4-5.1c-16.7-37-68.3-175.7-94.4-220.7c-26.1-45-59.5-111.1-84.2-164.1c-24.7-53-34.9-85-34.9-85c-10.2-18.9-35.6-70.4-26.9-78.4c8.7-8,99.5-57.4,163.4-86.4c63.9-29.1,125.6-53,185.9-72.6C551.5,48.8,590,43,608.9,43c18.9,0,29.1-6.6,61.7,71.9c32.7,78.4,109.6,241.1,151,339.1C863,551.9,890.6,612.9,876.1,620.2z M672,151.9c-17.4-34.9-42.1-53-58.1-51.6c-16,1.4-64.6,18.9-170.6,55.9c-106,37-161.9,58.8-205.5,79.9c-43.6,21.1-22.5,53-10.2,80.6c12.4,27.6,47.9,106.8,47.9,106.8s24.7,54.5,42.8,92.9c18.2,38.5,69.7,2.9,190.2-45c120.5-47.9,214.2-79.9,236-93.7c21.8-13.8-3.6-54.5-18.9-93.7C710.5,244.8,689.5,186.7,672,151.9z M709.1,362.4c-24.7,14.5-79.2,29.1-203.3,77c-124.2,47.9-138,50.8-148.1,54.5c-10.2,3.6-17.4,2.2-26.1-15.2c-8.7-17.4-63.2-132.9-63.2-132.9c-6.5-16.7-29.8-66.1-18.9-71.2c10.9-5.1,66.8-35.6,132.2-60.3c65.3-24.7,146.7-48.6,173.6-58.8c26.9-10.2,51.6-26.9,69.7-16.7c18.2,10.2,32.7,62.4,61,122.7C714.1,321.8,733.7,347.9,709.1,362.4z M364.9,315.2c-5.1-7.3-15.2,0-26.2,3.6c-10.9,3.7-14.5,2.2-18.9-5.1c-3-5-6.5-16,2.2-21.8c8.7-5.8,25.4-10.2,24-17.4c-1.4-7.3-17.4-11.6-32.7-4.4c-15.2,7.3-26.2,32-17.4,54.5s33.4,24.7,50.8,17.4C364.1,334.8,370,322.5,364.9,315.2z M599.4,252.1c5.1-3.6,9.4-5.1,9.4-18.2c0,0,5.1-3.6,14.5,0c9.4,3.7,28.3,4.4,26.1-10.9c-2.1-15.2-6.5-15.2-20.3-15.2c-13.8,0-16-2.2-12.3-8c3.6-5.8,13.1-15.9,4.4-26.1c-8.7-10.2-17.4,10.2-22.5,15.3c-5.1,5.1-11.6,5.1-13.1,0.7c-1.4-4.4-0.7-16-17.4-11.6c-6,1.6-8.7,10.2,0.7,26.9c9.4,16.7,16,38.5,16.7,42.8C586.4,252.1,594.3,255.7,599.4,252.1z M411.3,313.8c13.8,0,39.2-8,47.2-28.3c8-20.3,10.2-53-34.8-61c-9-1.6-39.2,28.3-39.9,46.5C383,289.1,397.6,313.8,411.3,313.8z M426.6,252.8c17.4,0,17.4,10.9,17.4,14.5c0,3.7-6.5,13.1-18.2,19.6c-11.6,6.5-19.6-2.9-19.6-10.9C406.3,268,417.2,252.8,426.6,252.8z M551.5,242.6c-0.7-28.3-7.2-38.5-34.8-40.7c-14.6-1.1-40.7,24-37.8,48.6c2.9,24.7,19.6,40.7,34.1,34.8C527.5,279.7,552.2,271,551.5,242.6z M534.8,241.9c-2.2,5.8-7.3,16-17.5,18.9c-10.2,2.9-18.1-4.4-18.1-14.5c0-10.2,12.2-21.8,21.1-21.8C533.3,224.5,537,236.1,534.8,241.9z M408.4,390c-8.7-7.3-13.8-30.5-45.7-22.5c-17.4,4.3-39.2,18.2-32,31.9c7.3,13.8,21.8,44.3,26.9,54.5c5.1,10.2,6.5,22.5,26.9,16c20.3-6.5,50.8-29.8,46.5-53.7C426.6,392.2,417.2,397.3,408.4,390z M357.6,403.1c-4.4-10.2,3.6-14,8.7-13.8c14.5,0.7,21.8,10.9,11.6,21C367.8,420.5,362,413.3,357.6,403.1z M400.5,440.1c-8.7,7.3-20.3,16.7-23.2,9.5c-2.9-7.3,1.6-15.4,12.3-22.5c13.1-8.7,15.2-14.5,21.8-8.7C417.9,424.2,409.2,432.9,400.5,440.1z M461.4,351.6c-15.1,3.8-34.9,23.2-27.6,49.4c7.3,26.1,30.5,33.4,55.2,13.1c24.7-20.3,29.1-35.6,15.2-52.3C490.5,345,481.8,346.5,461.4,351.6z M478.2,398.7c-17.4,12.3-20.3-2.9-21.8-13.1c-1.5-10.2,11-19,18.9-17.4C497.7,372.6,495.6,386.4,478.2,398.7z M548.6,318.1c-12.3,0.9-25.4,14.5-29,34.1c-3.6,19.6,20.3,38.5,37,34.9c16.7-3.6,24.7-23.2,23.2-42.1C578.4,326.1,558.8,317.4,548.6,318.1z M562.4,353.7c-1.4,5.8-5.1,12.3-10.9,12.3c-5.8,0-10.2-5.8-10.2-11.6c0-5.8,2.9-11.6,9.4-11.6C559.5,342.8,563.8,347.9,562.4,353.7z M667.7,335.6c-22.5-8.7-26.1-13.8-23.2-21.1c2.9-7.2,25.4-19.6,14.6-31.2c-10.9-11.6-21.8,0-27.6,10.9c-5.8,10.9-7.3,22.5-10.9,17.4c-3.6-5.1-4.4-27.6-22.5-20.3c-7.2,2.9-5.8,13.1,0,33.4c5.8,20.3,16,37.7,21,43.5c5.1,5.8,9.5,10.9,16,2.9c6.6-8-0.7-13.8,0.7-20.3c1.5-6.5,11.6,1.4,19.6,5.8c8,4.4,21.8,12.3,28.3,3.6C690.2,351.6,690.2,344.3,667.7,335.6z"/></g><g></g><g></g><g></g><g></g><g></g><g></g><g></g><g></g><g></g><g></g><g></g><g></g><g></g><g></g><g></g></g>
</svg>